<svg width="87" height="77" viewBox="0 0 87 77" fill="none" xmlns="http://www.w3.org/2000/svg">
<path d="M0 62.2581H47.6064" stroke="#E22929" stroke-width="2"/>
<path d="M67.7307 5.37469C67.9377 4.86263 67.6903 4.27978 67.1782 4.07285L58.8339 0.700678C58.3218 0.493745 57.739 0.741093 57.532 1.25314C57.3251 1.7652 57.5725 2.34805 58.0845 2.55498L65.5017 5.55247L62.5042 12.9697C62.2973 13.4817 62.5447 14.0646 63.0567 14.2715C63.5688 14.4785 64.1516 14.2311 64.3585 13.7191L67.7307 5.37469ZM4.22993 32.641L67.1942 5.92054L66.4129 4.07946L3.44863 30.7999L4.22993 32.641Z" fill="#E22929"/>
<rect x="4.07153" y="41.1182" width="10.2857" height="20.9032" stroke="#E22929" stroke-width="2"/>
<rect x="22.5" y="33.4839" width="10.2857" height="28.5376" stroke="#E22929" stroke-width="2"/>
<path d="M59.125 36.3011V19.5054H69.875V37.828" stroke="#E22929" stroke-width="2"/>
<path d="M40.6965 62.258V25.6128H51.4465V40.8816" stroke="#E22929" stroke-width="2"/>
<path d="M80.3928 53.8602C80.3928 63.4217 72.5952 71.1828 62.9642 71.1828C53.3332 71.1828 45.5356 63.4217 45.5356 53.8602C45.5356 44.2986 53.3332 36.5376 62.9642 36.5376C72.5952 36.5376 80.3928 44.2986 80.3928 53.8602Z" stroke="#E22929" stroke-width="2"/>
<path d="M64.3268 42.6363C66.8281 42.6363 68.7881 43.2337 70.2068 44.4283C71.6254 45.623 72.3348 47.2657 72.3348 49.3563C72.3348 51.447 71.6254 53.0897 70.2068 54.2843C68.7881 55.4603 66.8281 56.0483 64.3268 56.0483H59.0628V62.2363H56.9908V42.6363H64.3268ZM64.2708 54.2283C66.2121 54.2283 67.6961 53.8083 68.7228 52.9683C69.7494 52.1097 70.2628 50.9057 70.2628 49.3563C70.2628 47.7697 69.7494 46.5563 68.7228 45.7163C67.6961 44.8577 66.2121 44.4283 64.2708 44.4283H59.0628V54.2283H64.2708Z" fill="#E22929"/>
<rect x="53.5657" y="58.8708" width="9" height="1.9885" fill="#E22929"/>
<rect x="59.0657" y="62.0984" width="3.00216" height="2.07495" transform="rotate(90 59.0657 62.0984)" fill="#E22929"/>
<path d="M76.0178 66.0752L86 75.9999" stroke="#E22929" stroke-width="2"/>
</svg>
