<svg width="86" height="71" viewBox="0 0 86 71" fill="none" xmlns="http://www.w3.org/2000/svg">
<rect x="45.1621" y="9" width="39.8378" height="52" stroke="#E22929" stroke-width="2"/>
<path d="M59.3477 27.2061L59.8407 26.336L59.1982 25.972L58.6612 26.479L59.3477 27.2061ZM65.5459 30.7174L65.053 31.5875L65.7815 32.0002L66.3159 31.3556L65.5459 30.7174ZM77.6984 17.1642C77.6469 16.6143 77.1594 16.2102 76.6095 16.2617L67.6487 17.1001C67.0988 17.1516 66.6947 17.639 66.7462 18.1889C66.7976 18.7388 67.2851 19.1429 67.835 19.0914L75.8002 18.3461L76.5455 26.3113C76.597 26.8612 77.0844 27.2653 77.6343 27.2138C78.1842 27.1624 78.5883 26.6749 78.5368 26.125L77.6984 17.1642ZM52.5964 34.9559L60.0343 27.9332L58.6612 26.479L51.2234 33.5016L52.5964 34.9559ZM58.8548 28.0762L65.053 31.5875L66.0389 29.8473L59.8407 26.336L58.8548 28.0762ZM66.3159 31.3556L77.4726 17.8955L75.9328 16.6192L64.776 30.0793L66.3159 31.3556Z" fill="#E22929"/>
<path d="M51.9099 42.7144H78.2523" stroke="#E22929" stroke-width="2"/>
<path d="M51.9099 47.3428H78.2523" stroke="#E22929" stroke-width="2"/>
<path d="M51.9099 51.9714H72.0541" stroke="#E22929" stroke-width="2"/>
<path d="M45.7116 19.5715H10.8792C8.29393 19.5715 6.19812 21.6673 6.19812 24.2527V51.9715H45.7116" stroke="#E22929" stroke-width="2"/>
<path d="M46 57H1V52H46" stroke="#E22929" stroke-width="2"/>
<path d="M34.115 25.743C34.115 26.6039 33.4132 27.3073 32.5406 27.3073C31.6681 27.3073 30.9663 26.6039 30.9663 25.743C30.9663 24.8821 31.6681 24.1787 32.5406 24.1787C33.4132 24.1787 34.115 24.8821 34.115 25.743Z" stroke="#E22929" stroke-width="1.5"/>
</svg>
