<svg width="86" height="71" viewBox="0 0 86 71" fill="none" xmlns="http://www.w3.org/2000/svg">
<rect x="31.7142" y="60.8638" width="22.5714" height="7.13636" stroke="#E22929" stroke-width="2"/>
<rect x="1" y="3" width="84" height="57.3864" stroke="#E22929" stroke-width="2"/>
<path d="M0 51.4888H85.6491" stroke="#E22929" stroke-width="2"/>
<path d="M21.5 68.2386H64.5" stroke="#E22929" stroke-width="2"/>
<path d="M22.2678 3.52271V52.3193" stroke="#E22929" stroke-width="2"/>
<path d="M7.67859 10.375H18.4286" stroke="#E22929" stroke-width="2"/>
<path d="M6.14341 10.375H4.60706" stroke="#E22929" stroke-width="2"/>
<path d="M7.67859 16.4661H18.4286" stroke="#E22929" stroke-width="2"/>
<path d="M6.14341 16.4661H4.60706" stroke="#E22929" stroke-width="2"/>
<path d="M7.67859 22.5569H18.4286" stroke="#E22929" stroke-width="2"/>
<path d="M6.14341 22.5569H4.60706" stroke="#E22929" stroke-width="2"/>
<path d="M7.67859 28.6479H18.4286" stroke="#E22929" stroke-width="2"/>
<path d="M6.14341 28.6479H4.60706" stroke="#E22929" stroke-width="2"/>
<path d="M7.67859 34.7388H18.4286" stroke="#E22929" stroke-width="2"/>
<path d="M6.14341 34.7388H4.60706" stroke="#E22929" stroke-width="2"/>
<rect x="28.6428" y="9.09082" width="22.5714" height="19.3182" stroke="#E22929" stroke-width="2"/>
<rect x="56.2858" y="9.09082" width="22.5714" height="19.3182" stroke="#E22929" stroke-width="2"/>
<rect x="28.6428" y="33.4546" width="22.5714" height="11.7045" stroke="#E22929" stroke-width="2"/>
<rect x="56.2858" y="33.4546" width="22.5714" height="11.7045" stroke="#E22929" stroke-width="2"/>
</svg>
