<svg width="122" height="44" viewBox="0 0 122 44" fill="none" xmlns="http://www.w3.org/2000/svg">
<g clip-path="url(#clip0_44_36)">
<path fill-rule="evenodd" clip-rule="evenodd" d="M116.767 0L115.79 5.29321L121.031 6.2713L122 0.978093L116.767 0ZM119.746 4.38087L117.662 3.99456L118.012 1.89043L120.104 2.27674L119.746 4.38087Z" fill="#0D2A43"/>
<path fill-rule="evenodd" clip-rule="evenodd" d="M108.791 3.6575H114.122V9.04112H108.791V3.6575ZM110.37 7.42192H112.494V5.27669H110.37V7.42192Z" fill="#0D2A43"/>
<path fill-rule="evenodd" clip-rule="evenodd" d="M16.8065 12.3865C14.8261 10.4961 12.1919 9.55087 8.9038 9.55087H0V10.118C0.318544 10.0799 0.641469 10.1223 0.939783 10.2414C1.2381 10.3604 1.50246 10.5525 1.70914 10.8002C2.09078 11.544 2.25453 12.3822 2.18119 13.2167V25.3483C2.25185 26.1773 2.08816 27.0095 1.70914 27.7483C1.50332 27.9975 1.23933 28.1911 0.94097 28.3117C0.642606 28.4322 0.319238 28.4759 0 28.4387V28.9976H9.15611C12.4821 28.9976 15.0838 28.1456 16.9612 26.4415C17.8955 25.5767 18.6305 24.5153 19.1143 23.3323C19.5981 22.1493 19.8188 20.8734 19.7609 19.5948C19.8011 18.2507 19.5586 16.9132 19.0493 15.6706C18.5401 14.4281 17.7757 13.3088 16.8065 12.3865ZM14.7556 25.9401C14.0501 26.7157 13.1841 27.3247 12.2191 27.7239C11.2541 28.1231 10.2139 28.3026 9.17238 28.2497H7.18653C6.82109 28.2994 6.44914 28.2554 6.10495 28.1219C5.76075 27.9883 5.45537 27.7694 5.21695 27.4853C4.81468 26.6014 4.64642 25.6271 4.72862 24.6579V10.2988H8.39106C9.54332 10.2349 10.6953 10.4303 11.7636 10.8709C12.8319 11.3116 13.7899 11.9865 14.5684 12.8468C16.1219 14.7474 16.9145 17.1664 16.7903 19.6277C16.9186 21.9149 16.1925 24.1675 14.7556 25.9401Z" fill="#0D2A43"/>
<path fill-rule="evenodd" clip-rule="evenodd" d="M32.3922 27.8632C32.3453 27.9326 32.2821 27.9891 32.2082 28.0278C32.1344 28.0665 32.0522 28.0862 31.969 28.0851C31.8494 28.0917 31.7311 28.057 31.6335 27.9868C31.536 27.9166 31.4648 27.8151 31.4319 27.6988C31.3163 27.212 31.2697 26.7111 31.2935 26.2111V21.0576C31.2962 20.222 31.0631 19.4029 30.6215 18.6962C30.1798 17.9895 29.5479 17.4246 28.7998 17.0675C28.0517 16.7104 27.2183 16.576 26.3972 16.6801C25.5762 16.7841 24.8015 17.1222 24.1639 17.6549C23.35 18.3418 22.7953 19.291 22.5932 20.3426L23.1954 20.5069C23.4018 19.7658 23.8278 19.1061 24.4162 18.6165C24.9675 18.1631 25.6586 17.9188 26.3695 17.9261C26.7326 17.9088 27.095 17.9737 27.4301 18.1159C27.7652 18.2581 28.0646 18.474 28.3066 18.748C28.8063 19.3329 29.0654 20.0887 29.0309 20.8604V21.7563C28.3159 22.1097 27.5656 22.3852 26.7928 22.5782C25.5277 22.8405 24.3339 23.376 23.2931 24.1481C23.0109 24.4126 22.7879 24.735 22.6391 25.0936C22.4903 25.4523 22.4192 25.8389 22.4304 26.2276C22.4251 26.6551 22.5119 27.0786 22.6848 27.4689C22.8576 27.8592 23.1124 28.2068 23.4314 28.4879C23.9712 28.9726 24.6406 29.2858 25.3558 29.3881C26.0709 29.4905 26.8001 29.3774 27.452 29.0632C28.0476 28.7072 28.5811 28.2546 29.0309 27.7235C29.1132 28.1057 29.2967 28.4583 29.5618 28.7435C29.827 29.0288 30.1638 29.236 30.5363 29.3432C30.9089 29.4503 31.3033 29.4533 31.6774 29.3519C32.0516 29.2505 32.3914 29.0485 32.6608 28.7673C33.1077 28.2591 33.359 27.6058 33.3689 26.9262H32.791C32.7042 27.2565 32.5698 27.5722 32.3922 27.8632ZM29.0146 26.5645C28.7748 27.0231 28.4069 27.4003 27.9566 27.6495C27.5338 27.9182 27.0479 28.0686 26.5486 28.0851C26.3005 28.0852 26.0559 28.0256 25.8351 27.9112C25.6143 27.7969 25.4237 27.6311 25.2789 27.4276C24.921 26.9949 24.7302 26.446 24.7418 25.8823C24.709 25.291 24.8882 24.7075 25.2464 24.2385C25.9002 23.6505 26.6847 23.2304 27.5334 23.0138C28.1763 22.7919 28.6728 22.6111 29.0146 22.4631V26.5645Z" fill="#0D2A43"/>
<path d="M39.1393 16.6439V26.77C39.1075 27.0091 39.1282 27.2524 39.1999 27.4825C39.2717 27.7126 39.3927 27.9239 39.5544 28.1015C40.0291 28.3719 40.5743 28.4894 41.117 28.4385V28.9974H34.606V28.4385C35.2375 28.504 35.8745 28.3901 36.4454 28.1098C36.6067 27.9305 36.7269 27.7175 36.7973 27.4859C36.8676 27.2543 36.8864 27.0098 36.8523 26.77V19.3727C36.9194 18.8596 36.785 18.3404 36.4779 17.9261C35.9041 17.6186 35.251 17.4953 34.606 17.5727V17.0137L38.5614 16.6439H39.1393Z" fill="#0D2A43"/>
<path d="M38.0407 13.381C38.232 13.3831 38.4217 13.3455 38.5981 13.2705C38.7745 13.1956 38.9338 13.085 39.0662 12.9454C39.3387 12.6645 39.4907 12.2866 39.4894 11.8934C39.4938 11.7007 39.4596 11.5091 39.3889 11.3302C39.3182 11.1512 39.2123 10.9885 39.0778 10.8518C38.9433 10.7152 38.7827 10.6074 38.6059 10.535C38.4291 10.4625 38.2396 10.4269 38.0488 10.4303C37.8525 10.4258 37.6573 10.4605 37.4743 10.5324C37.2913 10.6043 37.1242 10.7121 36.9826 10.8495C36.8439 10.9844 36.734 11.1467 36.6598 11.3262C36.5856 11.5058 36.5486 11.6988 36.5513 11.8934C36.5495 12.0897 36.5876 12.2844 36.6632 12.4653C36.7388 12.6463 36.8503 12.8096 36.9908 12.9454C37.2701 13.2249 37.6475 13.3815 38.0407 13.381Z" fill="#0D2A43"/>
<path d="M63.5393 20.7042V26.7453C63.5201 26.9795 63.5509 27.2152 63.6295 27.4364C63.7081 27.6575 63.8328 27.8591 63.9951 28.0275C64.4675 28.304 65.0147 28.422 65.5577 28.3645V28.9645H59.2502V28.3645C59.8257 28.4375 60.4073 28.2878 60.878 27.9453C61.1949 27.3875 61.3342 26.7447 61.2768 26.1042V20.4083C61.2946 20.0728 61.2431 19.7373 61.1254 19.4232C61.0077 19.109 60.8264 18.823 60.5931 18.5836C60.0721 18.1252 59.395 17.8894 58.7049 17.9261C57.4515 17.9261 56.3365 18.6987 55.3355 20.2439V26.6549C55.3054 26.9003 55.3284 27.1494 55.4028 27.3849C55.4773 27.6205 55.6015 27.8369 55.7668 28.0193C56.2331 28.3047 56.7789 28.4288 57.3213 28.3727V28.9727H51.0707V28.3727C51.8846 28.3727 52.4788 28.233 52.6985 27.9453C52.9641 27.3739 53.0737 26.7411 53.0159 26.1124V20.548C53.0305 20.1951 52.973 19.8429 52.847 19.5135C52.721 19.184 52.5291 18.8842 52.2834 18.6329C52.0427 18.3967 51.757 18.2123 51.4436 18.0908C51.1302 17.9693 50.7958 17.9133 50.4603 17.9261C49.7887 17.9411 49.1368 18.1587 48.5884 18.5507C47.9538 18.9859 47.4296 19.566 47.0583 20.2439V26.7782C47.0319 27.0128 47.0576 27.2503 47.1337 27.4736C47.2097 27.6968 47.3341 27.9001 47.4978 28.0686C47.97 28.3628 48.5246 28.4927 49.0767 28.4385V28.9974H42.7855V28.3974C43.5994 28.3974 44.1772 28.2659 44.4132 27.9864C44.6956 27.5306 44.8188 26.9924 44.7632 26.4576V19.3315C44.8123 18.8556 44.6847 18.3782 44.4051 17.9918C44.2332 17.8378 44.0318 17.7211 43.8134 17.649C43.595 17.5769 43.3642 17.5509 43.1355 17.5726H42.4111V17.0137L46.4805 16.6439H47.0583V19.1507H47.1234C47.6014 18.3976 48.2518 17.7718 49.0198 17.326C49.7235 16.8907 50.5304 16.6551 51.3556 16.6439C52.1839 16.6311 52.9945 16.8869 53.6683 17.3735C54.3421 17.8602 54.8437 18.5522 55.0994 19.348C56.3637 17.5452 57.8313 16.6439 59.5025 16.6439C60.5692 16.6089 61.6068 16.9985 62.3918 17.7288C62.7811 18.1141 63.0849 18.5787 63.2827 19.0917C63.4806 19.6047 63.5681 20.1544 63.5393 20.7042Z" fill="#0D2A43"/>
<path fill-rule="evenodd" clip-rule="evenodd" d="M77.4078 26.926C77.3287 27.255 77.2025 27.5707 77.0334 27.863C76.9847 27.9325 76.92 27.989 76.8448 28.0277C76.7697 28.0663 76.6864 28.086 76.6021 28.085C76.4835 28.0911 76.3664 28.0561 76.2702 27.9859C76.174 27.9156 76.1044 27.8143 76.0731 27.6987C75.9534 27.2126 75.9067 26.7111 75.9347 26.211V21.0575C75.9789 20.4714 75.8981 19.8826 75.6978 19.3307C75.4975 18.7788 75.1822 18.2768 74.7734 17.8584C74.3645 17.4401 73.8716 17.1152 73.3278 16.9056C72.784 16.6961 72.202 16.6068 71.6212 16.6437C70.5875 16.6264 69.5822 16.9852 68.7889 17.6547C67.9775 18.3425 67.4256 19.2917 67.2262 20.3424L67.8285 20.5068C68.0273 19.7683 68.4447 19.1087 69.0249 18.6164C69.5783 18.1611 70.2726 17.9167 70.9863 17.926C71.3481 17.9099 71.7088 17.9754 72.0424 18.1175C72.3761 18.2597 72.6742 18.475 72.9152 18.7479C73.4179 19.331 73.6775 20.088 73.6396 20.8602V21.7561C72.9281 22.1114 72.1803 22.387 71.4096 22.5781C70.1424 22.8414 68.9461 23.3768 67.9017 24.1479C67.6212 24.4138 67.3994 24.7364 67.2507 25.0947C67.102 25.453 67.0299 25.839 67.039 26.2274C67.0338 26.6549 67.1206 27.0785 67.2934 27.4687C67.4663 27.859 67.7211 28.2067 68.0401 28.4877C68.5848 28.9816 69.2629 29.3002 69.9878 29.4027C70.7128 29.5051 71.4515 29.3869 72.1095 29.0631C72.7039 28.7087 73.2349 28.2558 73.6803 27.7233C73.78 28.1882 74.0333 28.605 74.3987 28.9052C74.764 29.2054 75.2196 29.3713 75.6905 29.3754C75.9927 29.3902 76.2944 29.3391 76.5753 29.2256C76.8562 29.1122 77.1096 28.939 77.3183 28.7178C77.748 28.2192 77.9951 27.5867 78.0182 26.926H77.4078ZM73.6477 26.5644C73.4137 27.0244 73.0478 27.4025 72.5978 27.6493C72.175 27.9181 71.6891 28.0685 71.1898 28.085C70.9412 28.0812 70.6968 28.0199 70.4753 27.906C70.2539 27.792 70.0611 27.6283 69.912 27.4274C69.5596 26.9921 69.372 26.4444 69.383 25.8822C69.3479 25.2919 69.5241 24.7084 69.8795 24.2383C70.5365 23.6506 71.3235 23.2306 72.1746 23.0137C72.8176 22.7918 73.314 22.6109 73.6477 22.463V26.5644Z" fill="#0D2A43"/>
<path d="M87.386 22.2414L90.9508 27.0004C91.2448 27.4371 91.6388 27.7958 92.0992 28.0461C92.5596 28.2965 93.073 28.4312 93.5958 28.4388V28.9812H87.3615V28.4223C87.9638 28.3347 88.265 28.1127 88.265 27.7566C88.226 27.4521 88.0985 27.1661 87.8987 26.9347L85.8396 24.0497L83.7479 26.7374C83.4938 27.0088 83.3388 27.3596 83.3084 27.7319C83.3084 28.1675 83.5526 28.3977 84.1223 28.4388V29.0388H79.2391V28.4799C79.8956 28.522 80.5517 28.3918 81.1435 28.1018C81.764 27.6386 82.3126 27.0845 82.7713 26.4579L85.335 23.351L82.5271 19.6195C82.1155 19.0151 81.6066 18.4844 81.0215 18.0496C80.4767 17.7488 79.868 17.5853 79.2472 17.5729V17.014H85.7582V17.5729C85.0664 17.6304 84.7165 17.8606 84.7165 18.2715C84.766 18.6768 84.9298 19.0591 85.1885 19.3729L86.8163 21.6414L88.444 19.6277C88.792 19.2631 89.0097 18.7916 89.0626 18.288C89.0626 17.8113 88.7533 17.5729 88.1266 17.5729V17.014H92.8389V17.54C92.2224 17.5843 91.624 17.7698 91.0891 18.0825C90.4312 18.5942 89.8429 19.1911 89.3393 19.8579L87.386 22.2414Z" fill="#0D2A43"/>
<path fill-rule="evenodd" clip-rule="evenodd" d="M95.8258 29.0223H107.22V17.5153H95.8258V29.0223ZM97.4536 19.1591H105.592V27.3784H97.4536V19.1591Z" fill="#0D2A43"/>
<path fill-rule="evenodd" clip-rule="evenodd" d="M120.185 29.0223H108.791V17.5153H120.185V29.0223ZM118.557 19.1591H110.418V27.3784H118.557V19.1591Z" fill="#0D2A43"/>
<path fill-rule="evenodd" clip-rule="evenodd" d="M114.122 11.0467H108.791V16.4386H114.122V11.0467ZM112.494 14.8111H110.37V12.6659H112.494V14.8111Z" fill="#0D2A43"/>
<path fill-rule="evenodd" clip-rule="evenodd" d="M95.8258 15.929H107.22V4.42199H95.8258V15.929ZM97.4536 6.06585H105.592V14.2851H97.4536V6.06585Z" fill="#0D2A43"/>
<path fill-rule="evenodd" clip-rule="evenodd" d="M120.25 13.9564L114.927 13.6851L115.196 8.30975L120.519 8.58098L120.25 13.9564ZM118.834 10.118L116.718 10.0111L116.612 12.1481L118.728 12.255L118.834 10.118Z" fill="#0D2A43"/>
<path d="M2.95693 35.3114C2.98572 35.2378 2.9987 35.1589 2.99502 35.0799C2.99292 34.9323 2.93394 34.7914 2.8306 34.687C2.72726 34.5827 2.58771 34.5231 2.44159 34.521C2.36543 34.5166 2.28917 34.5276 2.21732 34.5535C2.14548 34.5794 2.07951 34.6196 2.02334 34.6717C1.96717 34.7239 1.92194 34.7868 1.89033 34.857C1.85872 34.9271 1.84137 35.0029 1.83932 35.0799C1.83475 35.1563 1.84603 35.2329 1.87241 35.3047C1.8988 35.3765 1.93973 35.4419 1.99258 35.4968C2.04542 35.5518 2.10903 35.5949 2.17934 35.6236C2.24964 35.6523 2.3251 35.6659 2.40089 35.6635C2.47902 35.6694 2.5575 35.6585 2.63114 35.6314C2.70478 35.6044 2.7719 35.5619 2.82806 35.5068C2.88423 35.4516 2.92815 35.385 2.95693 35.3114Z" fill="#0D2A43"/>
<path d="M1.95326 36.5429V41.7539H2.88922V36.5429H1.95326Z" fill="#0D2A43"/>
<path d="M6.57617 37.9568C6.57617 37.4061 6.57617 36.9787 6.53548 36.543H7.34935L7.39818 37.365C7.56924 37.0639 7.8175 36.8149 8.11684 36.6442C8.41617 36.4735 8.75552 36.3875 9.09919 36.3951C9.8154 36.3951 10.9223 36.8307 10.9223 38.6143V41.7541H10.027V38.7458C10.027 37.9239 9.71773 37.2088 8.83061 37.2088C8.5477 37.2185 8.27485 37.3172 8.05016 37.4911C7.82546 37.665 7.66013 37.9053 7.57724 38.1787C7.53268 38.3223 7.51071 38.472 7.51213 38.6225V41.7541H6.57617V37.9568Z" fill="#0D2A43"/>
<path d="M15.6996 36.5427V35.2934L14.8044 35.5811V36.5427H13.9905V37.266H14.8044V40.1016C14.759 40.585 14.886 41.0688 15.1625 41.466C15.294 41.6023 15.4527 41.7087 15.6282 41.7781C15.8036 41.8476 15.9916 41.8785 16.1798 41.8688C16.4564 41.8705 16.7314 41.826 16.9937 41.7373L16.953 41.0222C16.775 41.0682 16.5913 41.0876 16.4077 41.0797C15.8868 41.0797 15.6996 40.7181 15.6996 40.0688V37.266H17.0425V36.5427H15.6996Z" fill="#0D2A43"/>
<path fill-rule="evenodd" clip-rule="evenodd" d="M20.6887 39.321C20.6687 39.56 20.7008 39.8004 20.7826 40.0255C20.8645 40.2506 20.9941 40.4549 21.1623 40.624C21.3306 40.7932 21.5335 40.9231 21.7568 41.0047C21.98 41.0863 22.2183 41.1176 22.4548 41.0964C22.9434 41.1109 23.4293 41.0183 23.8791 40.8251L24.05 41.4991C23.506 41.737 22.9171 41.852 22.3246 41.8361C21.9816 41.8497 21.6396 41.7901 21.321 41.6612C21.0023 41.5323 20.7142 41.337 20.4753 41.088C20.2365 40.839 20.0523 40.542 19.9348 40.2163C19.8173 39.8906 19.7691 39.5435 19.7934 39.1977C19.7934 37.6278 20.7049 36.4032 22.235 36.4032C23.9279 36.4032 24.3674 37.8909 24.3674 38.869C24.379 39.0167 24.379 39.1651 24.3674 39.3128L20.6887 39.321ZM23.4314 38.6306C23.4581 38.4426 23.4447 38.2511 23.3921 38.0688C23.3394 37.8865 23.2488 37.7176 23.1262 37.5736C23.0037 37.4296 22.852 37.3137 22.6815 37.2338C22.5109 37.1538 22.3254 37.1116 22.1374 37.11C21.7515 37.1328 21.3884 37.3023 21.1212 37.5844C20.8539 37.8665 20.7023 38.2402 20.6968 38.6306H23.4314Z" fill="#0D2A43"/>
<path d="M27.6311 36.5265C27.6718 37.0279 27.6718 37.5539 27.6718 38.1704V41.754H28.5996V38.9676C28.5869 38.82 28.5869 38.6715 28.5996 38.5238C28.6273 38.2037 28.77 37.9049 29.001 37.6838C29.2319 37.4627 29.535 37.3346 29.853 37.3238C29.9613 37.3147 30.0702 37.3147 30.1785 37.3238V36.4361C30.0919 36.4276 30.0047 36.4276 29.9181 36.4361C29.5905 36.4497 29.2756 36.5675 29.0184 36.7727C28.7611 36.9779 28.5746 37.2599 28.4857 37.5786L28.445 36.5265H27.6311Z" fill="#0D2A43"/>
<path d="M33.2877 37.9566C33.2877 37.4059 33.2877 36.9785 33.2389 36.5429H34.0527L34.1016 37.3648C34.2713 37.0625 34.5192 36.8125 34.8189 36.6417C35.1185 36.4708 35.4586 36.3855 35.8026 36.3949C36.5188 36.3949 37.6256 36.8306 37.6256 38.6141V41.7539H36.7385V38.7456C36.7385 37.9237 36.4292 37.2086 35.5421 37.2086C35.2592 37.2184 34.9864 37.3171 34.7617 37.4909C34.537 37.6648 34.3716 37.9052 34.2888 38.1785C34.2404 38.3212 34.2183 38.4716 34.2236 38.6224V41.7539H33.2877V37.9566Z" fill="#0D2A43"/>
<path fill-rule="evenodd" clip-rule="evenodd" d="M41.9434 40.0255C41.8616 39.8004 41.8295 39.56 41.8494 39.321L45.52 39.3128C45.5309 39.1651 45.5309 39.0167 45.52 38.869C45.52 37.8909 45.0887 36.4032 43.3958 36.4032C41.8657 36.4032 40.9542 37.6278 40.9542 39.1977C40.9299 39.5435 40.9781 39.8906 41.0956 40.2163C41.2131 40.542 41.3973 40.839 41.6361 41.088C41.875 41.337 42.1631 41.5323 42.4817 41.6612C42.8004 41.7901 43.1424 41.8497 43.4853 41.8361C44.0779 41.852 44.6668 41.737 45.2108 41.4991L45.0398 40.8251C44.59 41.0183 44.1041 41.1109 43.6156 41.0964C43.3791 41.1176 43.1408 41.0863 42.9176 41.0047C42.6943 40.9231 42.4914 40.7932 42.3231 40.624C42.1549 40.4549 42.0253 40.2506 41.9434 40.0255ZM44.5529 38.0688C44.6055 38.2511 44.6189 38.4426 44.5922 38.6306H41.8576C41.8631 38.2402 42.0147 37.8665 42.2819 37.5844C42.5492 37.3023 42.9122 37.1328 43.2982 37.11C43.4862 37.1116 43.6717 37.1538 43.8423 37.2338C44.0128 37.3137 44.1645 37.4296 44.287 37.5736C44.4096 37.7176 44.5002 37.8865 44.5529 38.0688Z" fill="#0D2A43"/>
<path d="M49.9232 35.2934V36.5427H51.2742V37.266H49.9232V40.0688C49.9232 40.7181 50.1022 41.0797 50.6231 41.0797C50.8067 41.0876 50.9904 41.0682 51.1684 41.0222L51.2091 41.7373C50.9468 41.826 50.6718 41.8705 50.3952 41.8688C50.2071 41.8785 50.019 41.8476 49.8436 41.7781C49.6682 41.7087 49.5094 41.6023 49.3779 41.466C49.1014 41.0688 48.9744 40.585 49.0198 40.1016V37.266H48.2059V36.5427H49.0198V35.5811L49.9232 35.2934Z" fill="#0D2A43"/>
<path d="M58.7862 36.5429C58.835 36.9785 58.835 37.4059 58.835 37.9566V41.7539H59.7466V38.6306C59.7422 38.2811 59.8662 37.9423 60.0947 37.6797C60.3232 37.4171 60.6399 37.2493 60.9837 37.2087C61.6999 37.2087 62.058 37.8087 62.058 38.6306V41.7539H62.9777V38.4991C62.9795 38.3402 63.0042 38.1824 63.0509 38.0306C63.1339 37.7966 63.2845 37.5931 63.4833 37.4466C63.6821 37.3 63.9199 37.2172 64.1659 37.2087C64.9147 37.2087 65.2891 37.8005 65.2891 38.8114V41.7539H66.1355V38.6635C66.1355 36.8552 65.1263 36.4032 64.4345 36.4032C64.026 36.3879 63.6253 36.5189 63.3032 36.7731C63.06 36.9502 62.8597 37.1806 62.7172 37.447C62.6158 37.1408 62.421 36.8749 62.1608 36.6874C61.9005 36.4999 61.5882 36.4004 61.2685 36.4032C60.9353 36.3937 60.6061 36.4788 60.3184 36.6488C60.0307 36.8188 59.7959 37.0669 59.6408 37.3648L59.6001 36.5429H58.7862Z" fill="#0D2A43"/>
<path fill-rule="evenodd" clip-rule="evenodd" d="M73.4686 40.5047C73.4619 40.9224 73.4864 41.34 73.5419 41.754H72.728L72.6547 41.0965C72.472 41.3415 72.2344 41.5393 71.9614 41.6736C71.6883 41.8079 71.3876 41.8749 71.0839 41.8691C70.8808 41.8851 70.6766 41.8581 70.4844 41.79C70.2922 41.7218 70.1161 41.6138 69.9675 41.4731C69.8189 41.3323 69.7011 41.1618 69.6214 40.9724C69.5418 40.783 69.5022 40.5789 69.505 40.3732C69.505 39.1156 70.6119 38.4252 72.6059 38.4416V38.3266C72.6254 38.166 72.6087 38.0031 72.5568 37.8501C72.5049 37.6971 72.4193 37.558 72.3065 37.4432C72.1937 37.3285 72.0565 37.2411 71.9053 37.1877C71.7542 37.1342 71.593 37.1161 71.4339 37.1348C70.9558 37.1272 70.4861 37.2615 70.0829 37.5211L69.8631 36.8882C70.3824 36.5855 70.9727 36.4294 71.5723 36.4361C73.1431 36.4361 73.5337 37.5211 73.5337 38.5567L73.4686 40.5047ZM72.5571 39.091C71.5397 39.091 70.3759 39.2553 70.3759 40.2663C70.3636 40.386 70.3775 40.5069 70.4166 40.6205C70.4557 40.7341 70.519 40.8377 70.602 40.9239C70.6851 41.0102 70.7859 41.0769 70.8973 41.1195C71.0087 41.1621 71.128 41.1795 71.2467 41.1704C71.5257 41.1794 71.8001 41.0969 72.0289 40.9355C72.2578 40.774 72.4287 40.5422 72.5164 40.2745C72.5448 40.1758 72.5585 40.0733 72.5571 39.9704V39.091Z" fill="#0D2A43"/>
<path d="M77.1067 36.5265V41.7539H78.0833V38.9511C78.0706 38.8035 78.0706 38.655 78.0833 38.5073C78.111 38.1872 78.2537 37.8883 78.4847 37.6673C78.7156 37.4462 79.0187 37.3181 79.3367 37.3073C79.445 37.2982 79.5539 37.2982 79.6622 37.3073V36.4196C79.5756 36.4111 79.4884 36.4111 79.4018 36.4196C79.0742 36.4332 78.7593 36.551 78.5021 36.7562C78.2448 36.9614 78.0583 37.2434 77.9694 37.5621L77.9205 36.5265H77.1067Z" fill="#0D2A43"/>
<path d="M83.6909 38.9345C83.8211 38.7454 83.992 38.5235 84.1385 38.3427L85.6605 36.5427H86.7836L84.7978 38.6879L87.0847 41.7537H85.9372L84.1629 39.2879L83.6909 39.8222V41.7537H82.7631V34.118H83.6909V38.9345Z" fill="#0D2A43"/>
<path fill-rule="evenodd" clip-rule="evenodd" d="M90.4886 40.0381C90.4086 39.8083 90.3802 39.5634 90.4054 39.3211L94.1004 39.3457C94.1162 39.1982 94.1162 39.0494 94.1004 38.9019C94.1004 37.9238 93.6609 36.4361 91.9681 36.4361C90.4461 36.4361 89.5264 37.6608 89.5264 39.2307C89.5022 39.5757 89.5502 39.9221 89.6672 40.2472C89.7842 40.5723 89.9677 40.8689 90.2056 41.1178C90.4436 41.3666 90.7307 41.5621 91.0484 41.6915C91.3661 41.8209 91.7071 41.8814 92.0494 41.869C92.642 41.885 93.2309 41.77 93.7749 41.532L93.604 40.8581C93.1541 41.0513 92.6683 41.1438 92.1797 41.1293C91.9395 41.1526 91.6973 41.1216 91.4704 41.0387C91.2436 40.9559 91.0378 40.8231 90.868 40.65C90.6982 40.477 90.5686 40.268 90.4886 40.0381ZM93.1135 38.0764C93.1672 38.2587 93.1817 38.4504 93.1563 38.6389L90.4217 38.6306C90.4291 38.2431 90.5805 37.8724 90.8458 37.5923C91.1111 37.3122 91.471 37.143 91.8541 37.1183C92.0424 37.1201 92.2282 37.1623 92.3991 37.2422C92.57 37.322 92.7221 37.4378 92.8452 37.5816C92.9684 37.7254 93.0599 37.8941 93.1135 38.0764Z" fill="#0D2A43"/>
<path d="M98.4792 35.2934V36.5427H99.8221V37.266H98.4792V40.0688C98.4792 40.7181 98.6582 41.0797 99.1791 41.0797C99.3627 41.0881 99.5465 41.0687 99.7244 41.0222V41.7373C99.4624 41.8274 99.1872 41.8718 98.9105 41.8688C98.7236 41.8778 98.537 41.8466 98.363 41.7771C98.189 41.7077 98.0316 41.6016 97.9013 41.466C97.6248 41.0688 97.4979 40.585 97.5432 40.1016V37.266H96.7293V36.5427H97.5432V35.5811L98.4792 35.2934Z" fill="#0D2A43"/>
<path d="M104.008 35.3115C104.036 35.2379 104.049 35.159 104.046 35.0799C104.049 35.0027 104.037 34.9256 104.01 34.8534C103.982 34.7811 103.941 34.7153 103.887 34.6599C103.834 34.6044 103.77 34.5606 103.699 34.5311C103.629 34.5016 103.553 34.4869 103.476 34.4881C103.398 34.4859 103.321 34.4996 103.249 34.5286C103.177 34.5575 103.112 34.601 103.057 34.6564C103.002 34.7118 102.959 34.778 102.93 34.8508C102.901 34.9236 102.888 35.0016 102.89 35.0799C102.885 35.1564 102.897 35.2329 102.923 35.3047C102.95 35.3765 102.99 35.442 103.043 35.4969C103.096 35.5518 103.16 35.595 103.23 35.6237C103.3 35.6524 103.376 35.6659 103.452 35.6635C103.53 35.6694 103.608 35.6585 103.682 35.6315C103.756 35.6045 103.823 35.562 103.879 35.5068C103.935 35.4516 103.979 35.3851 104.008 35.3115Z" fill="#0D2A43"/>
<path d="M103.004 36.543V41.754H103.94V36.543H103.004Z" fill="#0D2A43"/>
<path d="M107.627 37.9567C107.627 37.406 107.627 36.9786 107.586 36.543H108.4L108.449 37.3649C108.619 37.0632 108.867 36.8137 109.167 36.6429C109.466 36.4722 109.806 36.3865 110.15 36.395C110.866 36.395 111.973 36.8307 111.973 38.6142V41.754H111.037V38.7457C111.037 37.9238 110.728 37.2087 109.841 37.2087C109.558 37.2185 109.285 37.3171 109.06 37.491C108.835 37.6649 108.67 37.9053 108.587 38.1786C108.543 38.3222 108.521 38.472 108.522 38.6225V41.754H107.586L107.627 37.9567Z" fill="#0D2A43"/>
<path fill-rule="evenodd" clip-rule="evenodd" d="M119.961 42.2612C120.089 41.8505 120.129 41.4171 120.079 40.9896L120.03 37.932C120.03 37.5959 120.043 37.3062 120.054 37.0514C120.063 36.8513 120.071 36.6727 120.071 36.5101H119.257V37.332C119.1 37.0404 118.863 36.8007 118.574 36.6418C118.285 36.4829 117.957 36.4115 117.63 36.4361C116.433 36.4361 115.294 37.4306 115.294 39.1895C115.266 39.5034 115.301 39.8198 115.398 40.1195C115.494 40.4192 115.65 40.696 115.855 40.9333C116.061 41.1707 116.311 41.3635 116.593 41.5003C116.874 41.6371 117.179 41.715 117.491 41.7293C117.815 41.7431 118.136 41.6697 118.422 41.5166C118.708 41.3635 118.949 41.1362 119.119 40.8581V41.4252C119.119 42.7485 118.443 43.2581 117.491 43.2581C116.958 43.2647 116.433 43.1195 115.977 42.8389L115.741 43.5704C116.265 43.8663 116.859 44.0139 117.459 43.9978C118.139 44.0247 118.807 43.8029 119.339 43.3731C119.621 43.0509 119.833 42.672 119.961 42.2612ZM119.086 38.2115C119.125 38.3477 119.141 38.4892 119.135 38.6306V39.5676C119.139 39.7378 119.115 39.9073 119.062 40.069C118.98 40.351 118.81 40.5983 118.576 40.7734C118.343 40.9485 118.059 41.0417 117.768 41.0389C116.767 41.0389 116.246 40.1923 116.246 39.1731C116.246 37.9649 116.881 37.2005 117.776 37.2005C118.075 37.1979 118.366 37.2958 118.603 37.4789C118.84 37.662 119.01 37.9198 119.086 38.2115Z" fill="#0D2A43"/>
</g>
<defs>
<clipPath id="clip0_44_36">
<rect width="122" height="44" fill="white"/>
</clipPath>
</defs>
</svg>
