<svg width="366" height="212" viewBox="0 0 366 212" fill="none" xmlns="http://www.w3.org/2000/svg">
<g clip-path="url(#clip0_1_448)">
<path d="M330.698 12.4497C330.698 6.4088 325.801 1.51172 319.76 1.51172H45.5368C39.496 1.51172 34.5989 6.4088 34.5989 12.4496V188.56C34.5989 194.601 39.496 199.498 45.5368 199.498H319.76C325.801 199.498 330.698 194.601 330.698 188.56V12.4497Z" fill="white"/>
<path d="M364.627 199.506H330.888C331.278 198.377 331.494 197.163 331.494 195.904V11.8383C331.494 5.72157 326.507 0.776123 320.436 0.776123H44.9232C38.8084 0.776123 33.8646 5.76496 33.8646 11.8383V195.904C33.8646 197.163 34.0814 198.377 34.4717 199.506H0.645196C0.341625 199.506 0.0814209 199.766 0.0814209 200.069V205.709C0.0814209 205.883 0.0814209 206.36 0.515095 206.664C0.601829 206.75 0.73193 206.836 0.818665 206.88C3.33397 208.616 9.62227 211.175 16.7345 211.175H348.581C355.65 211.175 361.982 208.616 364.497 206.88C364.627 206.794 364.757 206.664 364.887 206.576C365.234 206.316 365.234 205.925 365.234 205.753V200.026C365.191 199.809 364.931 199.506 364.627 199.506ZM34.6018 195.904V11.8383C34.6018 6.15539 39.2421 1.51361 44.9232 1.51361H320.392C326.074 1.51361 330.714 6.15539 330.714 11.8383V195.904C330.714 197.163 330.497 198.377 330.063 199.506H299.923L299.88 199.332L298.969 195.341H325.856C327.982 195.341 329.717 193.605 329.717 191.479V173.563V172.609V11.7081C329.717 6.67596 325.596 2.55475 320.566 2.55475H44.7931C39.7625 2.55475 35.6426 6.67596 35.6426 11.7081V172.609V173.563V191.479C35.6426 193.605 37.3774 195.341 39.5023 195.341H65.5227L64.612 199.332L64.5687 199.506H35.2957C34.862 198.421 34.6018 197.206 34.6018 195.904ZM156.811 199.506H118.994H107.025H65.3058L66.2599 195.341H107.025H118.994H298.145L299.099 199.506H208.461H156.811ZM207.681 200.287C207.464 201.544 206.25 203.627 204.082 203.627H161.235C159.066 203.627 157.852 201.501 157.635 200.287H207.681ZM39.5023 194.56C37.811 194.56 36.4233 193.171 36.4233 191.479V173.563V172.609V11.7081C36.4233 7.0664 40.1962 3.33561 44.7931 3.33561H320.522C325.163 3.33561 328.892 7.10977 328.892 11.7081V172.609V173.563V191.479C328.892 193.171 327.505 194.56 325.814 194.56H39.5023ZM0.862032 200.287H64.3952H65.3492H107.068H119.038H156.854C157.071 201.891 158.589 204.407 161.235 204.407H204.082C206.726 204.407 208.245 201.891 208.461 200.287H299.143H300.097H364.454V205.839C364.454 205.925 364.454 206.013 364.41 206.056C364.324 206.143 364.237 206.186 364.15 206.273H1.1656C1.07887 206.229 1.0355 206.186 0.948764 206.143C0.862032 206.099 0.818665 206.013 0.818665 205.795V200.287H0.862032ZM348.538 210.481H16.7345C10.7497 210.481 5.32887 208.616 2.42325 207.01H362.893C359.943 208.616 354.523 210.481 348.538 210.481Z" fill="#0D2A43"/>
<path d="M328.889 11.7487C328.889 7.10193 325.122 3.33496 320.475 3.33496H44.8327C40.1859 3.33496 36.4189 7.10194 36.4189 11.7488V186.149C36.4189 190.796 40.1859 194.563 44.8327 194.563H320.475C325.122 194.563 328.889 190.796 328.889 186.149V11.7487Z" fill="white"/>
<path d="M321.303 12.6191H43.9261C43.4057 12.6191 42.972 13.0529 42.972 13.5735V187.098C42.972 187.619 43.4057 188.053 43.9261 188.053H321.303C321.824 188.053 322.258 187.619 322.258 187.098V13.5735C322.301 13.0529 321.868 12.6191 321.303 12.6191ZM321.303 187.098H43.9261V13.5735H321.303V187.098Z" fill="#0D2A43"/>
<path d="M182.7 10.0164C183.567 10.0164 184.218 9.32232 184.218 8.49807C184.218 7.63046 183.525 6.97974 182.7 6.97974C181.833 6.97974 181.182 7.67384 181.182 8.49807C181.182 9.32232 181.876 10.0164 182.7 10.0164ZM182.7 7.71722C183.134 7.71722 183.481 8.06426 183.481 8.49807C183.481 8.93192 183.134 9.27895 182.7 9.27895C182.266 9.27895 181.92 8.93192 181.92 8.49807C181.92 8.06426 182.266 7.71722 182.7 7.71722Z" fill="#0D2A43"/>
<path d="M125.848 210.004C125.934 210.004 125.978 210.004 126.064 210.004C127.149 209.96 127.756 209.787 127.886 209.439C127.973 209.266 127.93 209.049 127.799 208.919C127.365 208.442 125.804 208.398 125.501 208.398C125.414 208.398 125.371 208.398 125.284 208.398C124.199 208.442 123.593 208.615 123.462 208.963C123.376 209.136 123.419 209.353 123.549 209.483C123.983 210.004 125.544 210.004 125.848 210.004Z" fill="#0D2A43"/>
<path d="M238.729 210.004C238.816 210.004 238.903 210.004 238.946 210.004C239.25 210.004 240.811 209.96 241.245 209.483C241.375 209.309 241.419 209.136 241.331 208.963C241.158 208.615 240.551 208.398 239.51 208.398C239.424 208.398 239.38 208.398 239.293 208.398C238.99 208.398 237.428 208.442 236.994 208.919C236.864 209.093 236.822 209.266 236.908 209.439C237.082 209.787 237.689 210.004 238.729 210.004Z" fill="#0D2A43"/>
<path d="M321.302 13.5732H43.925V187.098H321.302V13.5732Z" fill="white"/>
<mask id="mask0_1_448" style="mask-type:alpha" maskUnits="userSpaceOnUse" x="94" y="76" width="181" height="40">
<path fill-rule="evenodd" clip-rule="evenodd" d="M94.1514 76.0034H274.048V115.98H94.1514V76.0034Z" fill="white"/>
</mask>
<g mask="url(#mask0_1_448)">
<path fill-rule="evenodd" clip-rule="evenodd" d="M106.27 95.2196C110.537 95.2196 113.268 94.5021 115.26 92.9006C117.023 91.4648 117.876 89.5325 117.876 87.1582C117.876 84.2314 116.569 82.2439 114.521 80.9186C112.301 79.4828 109.571 79.0969 104.962 79.0969H97.6236L97.6227 95.2196H106.27ZM94.1522 76.0034L105.189 76.0043C109.968 76.0043 113.667 76.5568 116.569 78.3794C119.356 80.1459 121.347 83.0166 121.347 86.9925C121.348 90.6368 119.64 93.618 117.023 95.4398C115.146 96.7659 112.927 97.4281 110.367 97.8149L124.134 115.98L119.924 115.98L106.497 98.0903H97.6227L97.6219 115.98H94.1514L94.1522 76.0034Z" fill="#1B2A30"/>
<path fill-rule="evenodd" clip-rule="evenodd" d="M164.112 88.4963H166.61L166.609 115.981H164.111L164.112 88.4963Z" fill="#1B2A30"/>
<path fill-rule="evenodd" clip-rule="evenodd" d="M177.29 110.312C180.323 112.13 184.214 113.093 187.932 113.093C192.682 113.093 195.715 111.542 195.716 108.388C195.715 104.431 191.023 104.003 186.618 103.361C181.926 102.666 176.604 101.383 176.604 96.0356C176.605 91.0624 181.124 88.4963 187.533 88.4963C191.195 88.4963 194.915 89.3517 197.662 90.7422L197.661 94.0574C194.686 92.2932 190.909 91.3843 187.42 91.3843C183.013 91.3843 179.981 92.8274 179.98 95.8224C179.981 99.5114 184.558 99.886 188.791 100.528C193.884 101.276 199.091 102.559 199.091 108.12C199.091 113.307 194.571 115.981 187.761 115.981C184.042 115.981 180.151 115.178 177.29 113.681V110.312Z" fill="#1B2A30"/>
<path fill-rule="evenodd" clip-rule="evenodd" d="M209.512 106.362L209.513 91.7471H204.088L204.089 88.9525H209.513V81.5376L212.778 81.0007V88.9534H221.578V91.7471H212.778V105.825C212.778 109.801 213.386 113.078 217.703 113.079C219.142 113.078 220.526 112.703 221.578 112.111L221.577 115.121C220.526 115.604 218.921 115.981 217.26 115.981C215.268 115.981 212.999 115.443 211.449 113.723C210.065 112.165 209.512 109.801 209.512 106.362Z" fill="#1B2A30"/>
<path fill-rule="evenodd" clip-rule="evenodd" d="M243.985 110.056V104.133C241.942 103.546 239.579 103.173 237.429 103.173C233.668 103.173 229.799 104.346 229.8 108.242C229.799 111.658 232.754 113.152 235.978 113.152C238.987 113.152 241.889 111.871 243.985 110.056ZM229.315 114.166C227.596 112.885 226.575 110.964 226.575 108.509C226.575 105.734 227.865 103.759 229.906 102.425C231.895 101.145 234.581 100.665 237.161 100.664C239.579 100.664 241.781 101.038 243.985 101.625V98.5837C243.985 96.0218 243.501 94.3678 242.051 93.0869C240.814 92.0196 238.988 91.4321 236.623 91.4321C233.508 91.4321 230.659 92.446 228.51 93.994V90.8454C230.659 89.5103 233.614 88.4972 236.946 88.4963C240.117 88.4972 242.695 89.2974 244.469 90.792C246.241 92.2866 247.155 94.6341 247.155 97.8368V109.204C247.154 111.445 247.691 113.1 249.841 113.099C250.485 113.099 251.077 112.94 251.561 112.673L251.56 115.395C250.969 115.661 250.164 115.821 249.249 115.821C246.993 115.821 245.22 114.754 244.468 112.725H244.36C242.372 114.433 239.149 115.981 235.548 115.981C233.292 115.981 231.035 115.447 229.315 114.166Z" fill="#1B2A30"/>
<path fill-rule="evenodd" clip-rule="evenodd" d="M261.982 106.363L261.983 91.7471H256.558L256.559 88.9534H261.983V81.5385L265.248 81.0007V88.9534H274.048V91.7471H265.248V105.825C265.248 109.802 265.856 113.079 270.173 113.079C271.612 113.079 272.995 112.703 274.048 112.112L274.047 115.121C272.995 115.605 271.391 115.981 269.73 115.981C267.738 115.981 265.469 115.444 263.919 113.724C262.535 112.166 261.982 109.802 261.982 106.363Z" fill="#1B2A30"/>
<path fill-rule="evenodd" clip-rule="evenodd" d="M147.086 98.3301C147.851 99.4306 148.299 100.776 148.299 102.239C148.299 105.982 145.4 108.976 141.624 108.976C137.85 108.976 134.95 105.981 134.95 102.239C134.95 98.4964 137.85 95.5014 141.625 95.5014C143.309 95.5014 144.816 96.1008 145.972 97.0936L150.879 91.2872C148.369 89.5287 145.187 88.4972 141.625 88.4963C133.035 88.4963 126.633 94.4855 126.633 102.239C126.633 109.992 133.035 115.981 141.624 115.981C150.214 115.981 156.615 109.993 156.615 102.24C156.615 99.0183 155.508 96.1048 153.601 93.7956L147.086 98.3301Z" fill="#26A4F0"/>
<path fill-rule="evenodd" clip-rule="evenodd" d="M165.205 83.4991L171.607 78.6731C170.84 77.6673 169.942 76.7701 168.932 76.0034L164.111 82.1822C164.526 82.5677 164.892 83.0111 165.205 83.4991Z" fill="#26A4F0"/>
</g>
</g>
<defs>
<clipPath id="clip0_1_448">
<rect width="366" height="211.942" fill="white"/>
</clipPath>
</defs>
</svg>
