<svg width="20" height="20" viewBox="0 0 20 20" fill="none" xmlns="http://www.w3.org/2000/svg">
<path fill-rule="evenodd" clip-rule="evenodd" d="M13.3333 8.54167V6.04167C13.3333 4.20072 11.841 2.70833 10 2.70833C8.15905 2.70833 6.66667 4.20072 6.66667 6.04167V8.54167C6.66667 10.3826 8.15905 11.875 10 11.875C11.841 11.875 13.3333 10.3826 13.3333 8.54167ZM10 1.875C7.69882 1.875 5.83334 3.74048 5.83334 6.04167V8.54167C5.83334 10.8429 7.69882 12.7083 10 12.7083C12.3012 12.7083 14.1667 10.8429 14.1667 8.54167V6.04167C14.1667 3.74048 12.3012 1.875 10 1.875Z" fill="#D03D34"/>
<path fill-rule="evenodd" clip-rule="evenodd" d="M7.08333 12.2917C4.55203 12.2917 2.5 14.3437 2.5 16.875V17.7084H17.5V16.875C17.5 14.3437 15.448 12.2917 12.9167 12.2917H12.0833C11.8532 12.2917 11.6667 12.1052 11.6667 11.875C11.6667 11.6449 11.8532 11.4584 12.0833 11.4584H12.9167C15.9082 11.4584 18.3333 13.8835 18.3333 16.875V18.5417H1.66666V16.875C1.66666 13.8835 4.09179 11.4584 7.08333 11.4584H7.91666C8.14678 11.4584 8.33333 11.6449 8.33333 11.875C8.33333 12.1052 8.14678 12.2917 7.91666 12.2917H7.08333Z" fill="#D03D34"/>
</svg>
